<svg xmlns="http://www.w3.org/2000/svg" viewBox="0 0 640 640" role="img" aria-label="GGRD bear mascot placeholder">
  <defs>
    <linearGradient id="fur" x1="0" y1="0" x2="1" y2="1">
      <stop offset="0%" stop-color="#1E2B29"/>
      <stop offset="100%" stop-color="#121917"/>
    </linearGradient>
    <linearGradient id="snout" x1="0" y1="0" x2="0" y2="1">
      <stop offset="0%" stop-color="#F7FAFC"/>
      <stop offset="100%" stop-color="#DCE6EA"/>
    </linearGradient>
    <filter id="glow" x="-40%" y="-40%" width="180%" height="180%">
      <feDropShadow dx="0" dy="0" stdDeviation="20" flood-color="#00AA98" flood-opacity="0.25"/>
    </filter>
  </defs>

  <g filter="url(#glow)">
    <circle cx="208" cy="196" r="82" fill="url(#fur)" stroke="#00AA98" stroke-opacity="0.5" stroke-width="7"/>
    <circle cx="432" cy="196" r="82" fill="url(#fur)" stroke="#00AA98" stroke-opacity="0.5" stroke-width="7"/>

    <ellipse cx="320" cy="346" rx="194" ry="206" fill="url(#fur)" stroke="#00AA98" stroke-width="10"/>

    <circle cx="252" cy="314" r="24" fill="#F7FAFC"/>
    <circle cx="388" cy="314" r="24" fill="#F7FAFC"/>
    <circle cx="252" cy="316" r="11" fill="#0D0C0B"/>
    <circle cx="388" cy="316" r="11" fill="#0D0C0B"/>

    <ellipse cx="320" cy="390" rx="62" ry="44" fill="url(#snout)"/>
    <path d="M286 384 L320 354 L354 384 Z" fill="#0D0C0B"/>
    <path d="M274 430 Q320 462 366 430" fill="none" stroke="#0D0C0B" stroke-width="9" stroke-linecap="round"/>

    <circle cx="176" cy="260" r="12" fill="#00AA98" fill-opacity="0.4"/>
    <circle cx="464" cy="260" r="10" fill="#00AA98" fill-opacity="0.35"/>
    <circle cx="198" cy="448" r="8" fill="#00AA98" fill-opacity="0.3"/>
    <circle cx="448" cy="448" r="9" fill="#00AA98" fill-opacity="0.3"/>
  </g>
</svg>